<?xml version="1.0" encoding="UTF-8" standalone="no"?>
<!-- Created with Inkscape (http://www.inkscape.org/) -->

<svg
   width="384.22629"
   height="198.4252"
   viewBox="0 0 101.65987 52.500001"
   version="1.1"
   id="svg5"
   xml:space="preserve"
   inkscape:version="1.2.2 (b0a8486, 2022-12-01)"
   sodipodi:docname="Iconos.svg"
   xmlns:inkscape="http://www.inkscape.org/namespaces/inkscape"
   xmlns:sodipodi="http://sodipodi.sourceforge.net/DTD/sodipodi-0.dtd"
   xmlns="http://www.w3.org/2000/svg"
   xmlns:svg="http://www.w3.org/2000/svg"><sodipodi:namedview
     id="namedview7"
     pagecolor="#ffffff"
     bordercolor="#999999"
     borderopacity="1"
     inkscape:showpageshadow="0"
     inkscape:pageopacity="0"
     inkscape:pagecheckerboard="0"
     inkscape:deskcolor="#d1d1d1"
     inkscape:document-units="mm"
     showgrid="true"
     inkscape:zoom="1.297652"
     inkscape:cx="540.59176"
     inkscape:cy="836.89616"
     inkscape:window-width="1366"
     inkscape:window-height="706"
     inkscape:window-x="0"
     inkscape:window-y="33"
     inkscape:window-maximized="1"
     inkscape:current-layer="layer1"
     showguides="true"><inkscape:grid
       type="axonomgrid"
       id="grid19842"
       visible="true"
       enabled="false" /><inkscape:grid
       type="xygrid"
       id="grid7047"
       spacingx="0.396875"
       spacingy="0.396875"
       enabled="true" /></sodipodi:namedview><defs
     id="defs2"><rect
       x="192.83675"
       y="153.38448"
       width="882.8255"
       height="268.14563"
       id="rect2968-3-367" /></defs><g
     inkscape:label="Capa 1"
     inkscape:groupmode="layer"
     id="layer1"
     transform="translate(-83.045664,-194.51901)"><g
       aria-label="Pops"
       transform="matrix(0.52053154,0,0,0.52053154,13.293229,105.29163)"
       id="text2966-0-5"
       style="font-size:96px;font-family:Impact;-inkscape-font-specification:Impact;white-space:pre;shape-inside:url(#rect2968-3-367);display:inline;fill:#0055d4;fill-opacity:1;stroke-width:2"><path
         d="m 215.76051,199.88221 q 7.99512,0 11.66778,3.13589 3.70093,3.10764 3.70093,8.92741 0,2.62737 -0.8758,5.00048 -0.84754,2.34485 -2.76862,4.15294 -1.92109,1.77983 -5.05698,2.82513 -3.10764,1.01704 -7.62785,1.01704 h -5.02873 v 16.2445 h -4.80272 v -41.30339 z m -0.45202,4.09643 h -5.53725 v 16.83777 h 4.49195 q 3.95518,0 6.58256,-0.84754 2.65562,-0.84753 3.98343,-2.74037 1.32781,-1.92109 1.32781,-5.08523 0,-4.12469 -2.62737,-6.13053 -2.62737,-2.0341 -8.22113,-2.0341 z"
         style="font-family:'Open Sans';-inkscape-font-specification:'Open Sans';fill:#0055d4;fill-opacity:1;stroke-width:1.20539"
         id="path537" /><path
         d="m 265.7653,225.64739 q 0,3.81392 -0.9888,6.80856 -0.98879,2.99463 -2.85338,5.05698 -1.86458,2.06234 -4.5202,3.16414 -2.62738,1.07355 -5.96103,1.07355 -3.10764,0 -5.70676,-1.07355 -2.57086,-1.1018 -4.4637,-3.16414 -1.86459,-2.06235 -2.90988,-5.05698 -1.01705,-2.99464 -1.01705,-6.80856 0,-5.08524 1.72333,-8.6449 1.72333,-3.58791 4.91572,-5.4525 3.22065,-1.89283 7.6561,-1.89283 4.2377,0 7.40184,1.89283 3.19239,1.89284 4.94397,5.48075 1.77984,3.55966 1.77984,8.61665 z m -23.56158,0 q 0,3.72917 0.98879,6.46954 0.9888,2.74038 3.05114,4.23769 2.06235,1.49733 5.31125,1.49733 3.22064,0 5.28299,-1.49733 2.0906,-1.49731 3.07939,-4.23769 0.9888,-2.74037 0.9888,-6.46954 0,-3.70092 -0.9888,-6.38479 -0.98879,-2.71213 -3.05114,-4.1812 -2.06234,-1.46906 -5.33949,-1.46906 -4.83098,0 -7.09108,3.19239 -2.23185,3.1924 -2.23185,8.84266 z"
         style="font-family:'Open Sans';-inkscape-font-specification:'Open Sans';fill:#0055d4;fill-opacity:1;stroke-width:1.20539"
         id="path539" /><path
         d="m 288.42283,209.65716 q 5.79152,0 9.23817,3.98343 3.44666,3.98343 3.44666,11.97854 0,5.283 -1.58207,8.87091 -1.58207,3.58792 -4.46371,5.42425 -2.85337,1.83633 -6.75205,1.83633 -2.45787,0 -4.32245,-0.64978 -1.86459,-0.64978 -3.19239,-1.75158 -1.32782,-1.1018 -2.2036,-2.40136 h -0.33902 q 0.0847,1.1018 0.19776,2.65563 0.14126,1.55381 0.14126,2.71212 v 12.71308 h -4.71797 v -44.80655 h 3.87043 l 0.62152,4.57671 h 0.22602 q 0.90404,-1.41256 2.2036,-2.57087 1.29956,-1.18655 3.16414,-1.86458 1.89283,-0.70628 4.4637,-0.70628 z m -0.81929,3.95518 q -3.22064,0 -5.19823,1.24305 -1.94934,1.24306 -2.85338,3.72917 -0.90404,2.45786 -0.96054,6.18703 v 0.90405 q 0,3.92693 0.84753,6.63905 0.87579,2.71213 2.85338,4.12469 2.00585,1.41257 5.36775,1.41257 2.88163,0 4.80272,-1.55383 1.92108,-1.55382 2.85338,-4.32244 0.96054,-2.79688 0.96054,-6.41305 0,-5.48075 -2.14709,-8.7014 -2.11885,-3.24889 -6.52606,-3.24889 z"
         style="font-family:'Open Sans';-inkscape-font-specification:'Open Sans';fill:#0055d4;fill-opacity:1;stroke-width:1.20539"
         id="path541" /><path
         d="m 329.30245,232.71021 q 0,2.96638 -1.49732,5.00048 -1.46906,2.00584 -4.23769,3.02289 -2.74038,1.01704 -6.5543,1.01704 -3.2489,0 -5.62201,-0.50852 -2.37311,-0.50852 -4.15294,-1.44082 v -4.32244 q 1.89284,0.93229 4.52021,1.69507 2.62737,0.76279 5.36775,0.76279 4.01168,0 5.81976,-1.29956 1.80808,-1.29956 1.80808,-3.53141 0,-1.27131 -0.73453,-2.23186 -0.70628,-0.98879 -2.40136,-1.89283 -1.69508,-0.9323 -4.68972,-2.03409 -2.96638,-1.13005 -5.14173,-2.23186 -2.1471,-1.13005 -3.33365,-2.74037 -1.1583,-1.61033 -1.1583,-4.18119 0,-3.92693 3.16414,-6.01753 3.19239,-2.11884 8.36238,-2.11884 2.79688,0 5.22649,0.56502 2.45786,0.53677 4.57671,1.46907 l -1.58207,3.75742 q -1.92109,-0.81929 -4.09644,-1.38431 -2.17535,-0.56503 -4.43545,-0.56503 -3.2489,0 -5.00048,1.07355 -1.72333,1.07355 -1.72333,2.93814 0,1.44081 0.79104,2.3731 0.81929,0.93229 2.59911,1.75158 1.77984,0.81929 4.68972,1.92109 2.90988,1.07355 5.02873,2.23185 2.11885,1.13005 3.2489,2.76863 1.1583,1.61032 1.1583,4.15294 z"
         style="font-family:'Open Sans';-inkscape-font-specification:'Open Sans';fill:#0055d4;fill-opacity:1;stroke-width:1.20539"
         id="path543" /></g><path
       style="fill:#0055d4;stroke-width:0.529167"
       d="m 109.02644,194.51901 4.33012,2.5 -25.980762,15 v 35 l -4.33013,-2.5 v -35 z"
       id="path2314"
       sodipodi:nodetypes="ccccccc" /><path
       style="fill:#0055d4;stroke-width:0.529167"
       d="m 91.705928,224.51901 12.990382,-7.5 v 5 l -12.990382,7.5 z"
       id="path2320" /><path
       style="fill:#0055d4;stroke-width:0.529167"
       d="m 91.705928,234.51901 8.660252,-5 v 5 l -8.660252,5 z"
       id="path2322"
       sodipodi:nodetypes="ccccc" /><path
       style="fill:#0055d4;stroke-width:0.529167"
       d="m 91.705928,214.51901 17.320502,-10 v 5 l -17.320502,10 z"
       id="path4603" /></g></svg>
